<svg width="338" height="603" viewBox="0 0 338 603" fill="none" xmlns="http://www.w3.org/2000/svg">
    <g filter="url(#filter0_dddd_283_8127)">
    <path d="M69.957 24.9941L58.9121 46H55.4844L44.4541 24.9941H47.8672L57.1982 42.7627L66.5293 24.9941H69.957ZM96.3535 24.9941L85.3086 46H81.8809L70.8506 24.9941H74.2637L83.5947 42.7627L92.9258 24.9941H96.3535ZM102.315 46H99.3125V24.9941H102.315V46ZM122.486 46H119.483V35.4971C119.483 34.4619 119.288 33.4902 118.897 32.582C118.507 31.6738 117.97 30.8828 117.286 30.209C116.612 29.5254 115.816 28.9883 114.898 28.5977C113.99 28.1973 113.019 27.9971 111.983 27.9971H110.372V46H107.369V24.9941H111.983C112.94 24.9941 113.858 25.1211 114.737 25.375C115.626 25.6191 116.456 25.9658 117.228 26.415C117.999 26.8643 118.702 27.4014 119.337 28.0264C119.972 28.6514 120.523 29.3447 120.992 30.1064C121.451 29.3447 121.998 28.6514 122.633 28.0264C123.268 27.4014 123.971 26.8643 124.742 26.415C125.514 25.9658 126.339 25.6191 127.218 25.375C128.106 25.1211 129.029 24.9941 129.986 24.9941H134.615V46H131.612V27.9971H129.986C128.951 27.9971 127.979 28.1973 127.071 28.5977C126.163 28.9883 125.367 29.5254 124.684 30.209C124.01 30.8828 123.473 31.6738 123.072 32.582C122.682 33.4902 122.486 34.4619 122.486 35.4971V46ZM162.843 39.9941C162.843 40.834 162.687 41.6201 162.374 42.3525C162.062 43.0752 161.632 43.71 161.085 44.2568C160.548 44.7939 159.913 45.2188 159.181 45.5312C158.458 45.8438 157.682 46 156.852 46H138.6V42.9971H156.852C157.271 42.9971 157.662 42.9189 158.023 42.7627C158.385 42.6064 158.697 42.3916 158.961 42.1182C159.234 41.8447 159.449 41.5273 159.605 41.166C159.762 40.7949 159.84 40.4043 159.84 39.9941C159.84 39.584 159.762 39.1982 159.605 38.8369C159.449 38.4756 159.234 38.1582 158.961 37.8848C158.697 37.6113 158.385 37.3965 158.023 37.2402C157.662 37.084 157.271 37.0059 156.852 37.0059H144.605C143.785 37.0059 143.009 36.8496 142.276 36.5371C141.544 36.2246 140.904 35.7998 140.357 35.2627C139.82 34.7158 139.391 34.0762 139.068 33.3438C138.756 32.6113 138.6 31.8301 138.6 31C138.6 30.1797 138.756 29.4033 139.068 28.6709C139.391 27.9385 139.82 27.3037 140.357 26.7666C140.904 26.2197 141.544 25.79 142.276 25.4775C143.009 25.1553 143.785 24.9941 144.605 24.9941H161.349V27.9971H144.605C144.195 27.9971 143.805 28.0752 143.434 28.2314C143.072 28.3877 142.755 28.6025 142.481 28.876C142.208 29.1494 141.993 29.4717 141.837 29.8428C141.681 30.2041 141.603 30.5898 141.603 31C141.603 31.4102 141.681 31.8008 141.837 32.1719C141.993 32.5332 142.208 32.8506 142.481 33.124C142.755 33.3975 143.072 33.6123 143.434 33.7686C143.805 33.9248 144.195 34.0029 144.605 34.0029H156.852C157.682 34.0029 158.458 34.1641 159.181 34.4863C159.913 34.7988 160.548 35.2285 161.085 35.7754C161.632 36.3125 162.062 36.9473 162.374 37.6797C162.687 38.4023 162.843 39.1738 162.843 39.9941Z" fill="white"/>
    <path d="M177.682 31.5127C177.682 32.1279 177.608 32.6699 177.462 33.1387C177.325 33.5977 177.14 33.998 176.905 34.3398C176.671 34.6816 176.402 34.9697 176.1 35.2041C175.807 35.4287 175.504 35.6094 175.191 35.7461C174.879 35.8828 174.571 35.9805 174.269 36.0391C173.966 36.0977 173.692 36.127 173.448 36.127H169.757C169.386 36.127 168.956 36.0586 168.468 35.9219C167.989 35.7852 167.53 35.5459 167.091 35.2041C166.661 34.8525 166.295 34.3789 165.992 33.7832C165.689 33.1875 165.538 32.4307 165.538 31.5127V29.5938C165.538 28.6758 165.689 27.9189 165.992 27.3232C166.295 26.7178 166.661 26.2393 167.091 25.8877C167.53 25.5361 167.989 25.292 168.468 25.1553C168.956 25.0088 169.386 24.9355 169.757 24.9355H173.448C173.692 24.9355 173.966 24.9648 174.269 25.0234C174.571 25.082 174.879 25.1846 175.191 25.3311C175.504 25.4678 175.807 25.6533 176.1 25.8877C176.402 26.1221 176.671 26.415 176.905 26.7666C177.14 27.1084 177.325 27.5137 177.462 27.9824C177.608 28.4512 177.682 28.9883 177.682 29.5938V31.5127ZM174.869 29.5352C174.869 29.8867 174.815 30.1943 174.708 30.458C174.601 30.7119 174.459 30.9268 174.283 31.1025C174.107 31.2783 173.912 31.4199 173.697 31.5273C173.482 31.6348 173.272 31.708 173.067 31.7471L175.47 33.6074C175.646 33.3828 175.792 33.1045 175.909 32.7725C176.036 32.4307 176.1 32.0107 176.1 31.5127V29.5938C176.1 29.1836 176.036 28.7979 175.909 28.4365C175.792 28.0654 175.621 27.7383 175.396 27.4551C175.172 27.1719 174.894 26.9473 174.562 26.7812C174.229 26.6152 173.858 26.5322 173.448 26.5322H169.757C169.708 26.5322 169.61 26.542 169.464 26.5615C169.317 26.5713 169.146 26.6104 168.951 26.6787C168.756 26.7373 168.551 26.8301 168.336 26.957C168.121 27.084 167.921 27.2646 167.735 27.499C167.56 27.7236 167.413 28.0068 167.296 28.3486C167.179 28.6904 167.12 29.1055 167.12 29.5938V31.5127C167.12 31.9131 167.184 32.2988 167.311 32.6699C167.438 33.0312 167.613 33.3535 167.838 33.6367C168.072 33.9102 168.351 34.1299 168.673 34.2959C168.995 34.4619 169.356 34.5449 169.757 34.5449H173.448C173.478 34.5449 173.541 34.5449 173.639 34.5449C173.736 34.5352 173.844 34.5156 173.961 34.4863L170.606 31.7764V30.165H172.613C172.828 30.165 172.989 30.1113 173.097 30.0039C173.214 29.8867 173.272 29.7305 173.272 29.5352V28.9053H170.064V33.373H168.468V27.2793H173.302C173.556 27.2793 173.78 27.3281 173.976 27.4258C174.171 27.5137 174.332 27.6309 174.459 27.7773C174.596 27.9238 174.698 28.0947 174.767 28.29C174.835 28.4756 174.869 28.6611 174.869 28.8467V29.5352Z" fill="#16DBCC"/>
    </g>
    <defs>
    <filter id="filter0_dddd_283_8127" x="-113.546" y="-5.06445" width="451.228" height="608.064" filterUnits="userSpaceOnUse" color-interpolation-filters="sRGB">
    <feFlood flood-opacity="0" result="BackgroundImageFix"/>
    <feColorMatrix in="SourceAlpha" type="matrix" values="0 0 0 0 0 0 0 0 0 0 0 0 0 0 0 0 0 0 127 0" result="hardAlpha"/>
    <feOffset dy="25"/>
    <feGaussianBlur stdDeviation="27.5"/>
    <feColorMatrix type="matrix" values="0 0 0 0 0.301961 0 0 0 0 0.298039 0 0 0 0 0.298039 0 0 0 0.1 0"/>
    <feBlend mode="normal" in2="BackgroundImageFix" result="effect1_dropShadow_283_8127"/>
    <feColorMatrix in="SourceAlpha" type="matrix" values="0 0 0 0 0 0 0 0 0 0 0 0 0 0 0 0 0 0 127 0" result="hardAlpha"/>
    <feOffset dy="99"/>
    <feGaussianBlur stdDeviation="49.5"/>
    <feColorMatrix type="matrix" values="0 0 0 0 0.301961 0 0 0 0 0.298039 0 0 0 0 0.298039 0 0 0 0.09 0"/>
    <feBlend mode="normal" in2="effect1_dropShadow_283_8127" result="effect2_dropShadow_283_8127"/>
    <feColorMatrix in="SourceAlpha" type="matrix" values="0 0 0 0 0 0 0 0 0 0 0 0 0 0 0 0 0 0 127 0" result="hardAlpha"/>
    <feOffset dy="224"/>
    <feGaussianBlur stdDeviation="67"/>
    <feColorMatrix type="matrix" values="0 0 0 0 0.301961 0 0 0 0 0.298039 0 0 0 0 0.298039 0 0 0 0.05 0"/>
    <feBlend mode="normal" in2="effect2_dropShadow_283_8127" result="effect3_dropShadow_283_8127"/>
    <feColorMatrix in="SourceAlpha" type="matrix" values="0 0 0 0 0 0 0 0 0 0 0 0 0 0 0 0 0 0 127 0" result="hardAlpha"/>
    <feOffset dx="1" dy="398"/>
    <feGaussianBlur stdDeviation="79.5"/>
    <feColorMatrix type="matrix" values="0 0 0 0 0.301961 0 0 0 0 0.298039 0 0 0 0 0.298039 0 0 0 0.01 0"/>
    <feBlend mode="normal" in2="effect3_dropShadow_283_8127" result="effect4_dropShadow_283_8127"/>
    <feBlend mode="normal" in="SourceGraphic" in2="effect4_dropShadow_283_8127" result="shape"/>
    </filter>
    </defs>
    </svg>
    